<?xml version="1.0" encoding="utf-8"?>
<!-- Generator: Adobe Illustrator 24.3.0, SVG Export Plug-In . SVG Version: 6.00 Build 0)  -->
<svg version="1.1" id="圖層_1" xmlns="http://www.w3.org/2000/svg" xmlns:xlink="http://www.w3.org/1999/xlink" x="0px" y="0px"
	 viewBox="0 0 120 119" style="enable-background:new 0 0 120 119;" xml:space="preserve">
<style type="text/css">
	.st0{fill:#3F3F3F;}
	.st1{fill:#FC9F42;}
</style>
<path class="st0" d="M63.7,24.9h31.5c1.6,0,3.1-0.8,4-2.1l15.2-21.4c1-1.4,2.9-1.7,4.3-0.7c0.9,0.6,1.3,1.6,1.3,2.6v103
	c0.2,6.9-5.3,12.5-12.1,12.7H38.1c0,0-27.7,1.3-31.4-30c0,0-0.4-7.3,2.1-12.9c0.5-1.1,0.9-2.3,1.2-3.5c1-3.6,1.5-7.3,1.4-11
	c-0.1-5.1-2.4-10-6.3-13.3c-3-2.5-6.8-6.8-4.2-10.8c0,0,3.7-6.4,15.6,6.4c0,0,8.4,7.1,4.1,30.9c0,0-8,31.5,15.4,30.7L38.8,3.3
	c-0.1-1.7,1.2-3.1,2.9-3.2c1,0,2,0.4,2.6,1.3l15.3,21.5C60.6,24.1,62.1,24.8,63.7,24.9z"/>
<ellipse class="st1" cx="62.4" cy="45.9" rx="5.8" ry="6"/>
<ellipse class="st1" cx="99" cy="45.9" rx="5.8" ry="6"/>
<path d="M68.6,63.5c0.5,1.2,1.2,2.3,2.1,3.2c0.8,0.9,1.9,1.5,3.1,1.7c1.2,0.1,2.3-0.2,3.4-0.7c0.5-0.3,1.1-0.6,1.6-0.9l1.5-1.1l0,0
	c0.3-0.2,0.7-0.2,1,0c1,0.8,2,1.4,3.2,1.8c1.1,0.5,2.3,0.7,3.5,0.7c1.2-0.1,2.4-0.6,3.2-1.4c0.5-0.4,0.9-0.9,1.3-1.4
	c0.4-0.5,0.7-1.1,1.1-1.7c-0.2,0.6-0.4,1.3-0.7,1.9l-0.5,0.9c-0.2,0.3-0.4,0.6-0.6,0.8c-0.2,0.3-0.5,0.5-0.7,0.8l-0.9,0.6
	c-0.3,0.2-0.7,0.3-1,0.5c-0.3,0.1-0.7,0.2-1.1,0.3c-1.4,0.2-2.8,0-4.1-0.4c-1.3-0.5-2.6-1.2-3.7-2h1.1l-1.7,1.2
	c-0.6,0.3-1.2,0.7-1.8,1c-1.3,0.6-2.8,0.8-4.3,0.5c-1.4-0.3-2.7-1.2-3.5-2.4C69.3,66.1,68.8,64.8,68.6,63.5z"/>
</svg>
