<svg id="圖層_1" data-name="圖層 1" xmlns="http://www.w3.org/2000/svg" viewBox="0 0 118 120"><defs><style>.cls-1{fill:#57ab5b;}.cls-2{fill:#50a454;}.cls-3{fill:#6eb971;}.cls-4{fill:#e7eee7;}.cls-5{fill:#439f47;}.cls-6{fill:#ededed;}.cls-7{fill:#8ecb72;}.cls-8{fill:#fc7a4e;}.cls-9{fill:#e4653b;}.cls-10{fill:#af3e20;}</style></defs><path class="cls-1" d="M184.54,696.54c-2.32-5.4-3.43-11.22-6.84-16.24h0c-1.95-6.23-5-12-8.3-17.76L163,650.22c11.53,8.12,18.88,18.94,24.72,30.74,1.33-.55.64-1.64,1.11-2.32,1.5.22,1.5,1.28,1.75,2.32,1.25,5.19,2.57,10.35,3.87,15.53" transform="translate(-163 -614)"/><path class="cls-2" d="M194.45,696.49c-1.3-5.18-2.62-10.34-3.87-15.53-.25-1-.25-2.1-1.75-2.32l-.54-1.72c1.62-1,1-1.55-.51-1.88l-.45-1.71c1.6-1.05.93-1.55-.55-1.87-.41-1-1.12-1.9-.52-3,.19-2.32.17-4.58-2.38-6a.72.72,0,0,0-.5.12,79.53,79.53,0,0,0-5.09-14.29c-1.08-1.51-.31-2.93.25-4.36l.84.65c3.41,5.61,8.06,10.6,10.26,16.8l.64,1.23a1.56,1.56,0,0,0,.9.24l.12-.26-.16.24c.4,1.41.81,2.82,1.21,4.22-1.34,1.25-.31,1.57.88,1.82a15.86,15.86,0,0,1,2.33,6.22c-1.51.83-.44,1.81-.2,2.74,1.59,6.2,3.76,12.31,4.06,18.74" transform="translate(-163 -614)"/><path class="cls-1" d="M183.88,662.42c2.55,1.44,2.57,3.7,2.38,6C184.24,666.83,184.27,664.56,183.88,662.42Z" transform="translate(-163 -614)"/><path class="cls-1" d="M186.78,671.46c1.48.32,2.15.82.55,1.87C186.51,672.86,186.58,672.17,186.78,671.46Z" transform="translate(-163 -614)"/><path class="cls-1" d="M187.78,675c1.51.33,2.13.86.51,1.88A1.44,1.44,0,0,1,187.78,675Z" transform="translate(-163 -614)"/><path class="cls-3" d="M199.42,696.53c-.3-6.43-2.47-12.54-4.06-18.74-.24-.93-1.31-1.91.2-2.74,1.57.84.55,3.2,3,3.89a156.13,156.13,0,0,1,3-34.24h0l.66-1a1,1,0,0,0,0-.87c.1-.52.19-1,.28-1.56l.64-1.12c.1-.6.21-1.2.32-1.8a8.61,8.61,0,0,0,1.73-4.51l.38-1.37.68-1.3,1.33-3.33c1.85-1.9,1.63-4.81,3.91-6.49,1,.82.27,1.58-.07,2.4a121,121,0,0,0-9.12,42.22c-.41,10.33,1.63,20.42,3,30.58" transform="translate(-163 -614)"/><path class="cls-3" d="M192.35,667a1.4,1.4,0,0,1,.88,1.82C192,668.58,191,668.26,192.35,667Z" transform="translate(-163 -614)"/><path class="cls-3" d="M189.64,661.34a2,2,0,0,1,.88.26l-.24,1Z" transform="translate(-163 -614)"/><path class="cls-4" d="M190.28,662.57l.24-1,.66,1.21A1.56,1.56,0,0,1,190.28,662.57Z" transform="translate(-163 -614)"/><path class="cls-1" d="M238.24,696.51c.58-5.13,3.9-10,2.69-15.22a159.1,159.1,0,0,0-8.94-27.7c-1.67-3.87-5.28-7.13-4.91-11.68,1.7.76,1.42,3,3.52,3.74,2.69-3.11,3.39-7.3,6.59-10.12.26,3.07-1.87,5.37-3.32,7.8-2.19,3.7-2.19,7,.95,10.59.66-1.69,1.11-3.22,1.82-4.64,1.1-2.17.2-5.17,3.28-6.52l.25,1.83a37.45,37.45,0,0,0-3.13,12c-2.11,2.53.59,4.44,1.18,6.56,1.41,5.14,3.21,10.2,5.13,16.15,3.42-6.3,6.07-11.79,9.66-16.83,1.65-2.12,3.31-4.23,5-6.34l12.38-11.53c1.09-.17,1.76-1.43,3.19-.92a16.9,16.9,0,0,1-1.91,6.5c-2,4.31-4.64,8.35-5.67,13l-2.85,4.67c-2.15.12-2.41,1.71-3,3.07q-5.43,12.75-10.88,25.5" transform="translate(-163 -614)"/><path class="cls-5" d="M205.38,696.52c-1.41-10.16-3.45-20.25-3-30.58a121,121,0,0,1,9.12-42.22c.34-.82,1.08-1.58.07-2.4l.93-1.81.68-1.19c.09-.46.18-.93.28-1.4l1.09-1.88c.27-.35.55-.69.83-1h1l.16,1a15.48,15.48,0,0,0-.12,6.25l-.46,3.55a1.75,1.75,0,0,0-1.52,2c.37,5.36-.95,10.64-1,16-.21,18-.34,35.89,1.91,53.76" transform="translate(-163 -614)"/><path class="cls-3" d="M227.31,696.51c.53-4.25.71-8.57,1.67-12.74,1.7-7.38.65-14.39-2.34-22.13-3.84,11.9-5.94,23.18-5.47,34.79" transform="translate(-163 -614)"/><path class="cls-3" d="M215.34,696.52c-2.25-17.87-2.12-35.81-1.91-53.76.06-5.32,1.38-10.6,1-16a1.75,1.75,0,0,1,1.52-2l.57,1.81a249.77,249.77,0,0,0,.11,27.77l.21,8q.51,11.82,1,23.62c-.85,2.48-.87,4.9.61,8.52,1.29-3.68.69-6.26.82-8.77-.81-8.06,3.07-15.43,4.21-23.2,2.91-3.74,1.88-7.78,1.09-11.8,2.41.71,2.13,2.82,2.62,4.4a240.23,240.23,0,0,1,9,41.31" transform="translate(-163 -614)"/><path class="cls-5" d="M236.22,696.51a240.23,240.23,0,0,0-9-41.31c-.49-1.58-.21-3.69-2.62-4.4-.57-1.92-1.13-3.85-1.7-5.77l-.32-1.37c-1.06-2.64-2.17-5.27-3.14-7.94-.23-.63-.39-1.61.7-1.82a2.18,2.18,0,0,1,1.64.64c2,2.33,4.5,4.36,5.31,7.37-.37,4.55,3.24,7.81,4.91,11.68a159.1,159.1,0,0,1,8.94,27.7c1.21,5.22-2.11,10.09-2.69,15.22" transform="translate(-163 -614)"/><path class="cls-2" d="M254.07,696.44a99.35,99.35,0,0,1,3.75-11.32c1.7-4.74,5.34-8.71,6.24-13.7q1.65-2.86,3.31-5.73l2-2.27.71-.71a53.29,53.29,0,0,1,3.8-4c2.35-2,3-5.69,7.12-6.07L278.83,658l0-.09a125.67,125.67,0,0,0-11.05,22.37h.05l-.71,1.11a90.25,90.25,0,0,0-6.05,15.21" transform="translate(-163 -614)"/><path class="cls-5" d="M221.17,696.43c-.47-11.61,1.63-22.89,5.47-34.79,3,7.74,4,14.75,2.34,22.13-1,4.17-1.14,8.49-1.67,12.74" transform="translate(-163 -614)"/><path class="cls-3" d="M249.24,696.46q5.44-12.75,10.88-25.5c.58-1.36.84-3,3-3.07-.24.86-.46,1.72-.74,2.56-.71,2.14.59,1.4,1.69,1-.9,5-4.54,9-6.24,13.7a99.35,99.35,0,0,0-3.75,11.32" transform="translate(-163 -614)"/><path class="cls-4" d="M202.21,643.67l-.66,1-.12-1Z" transform="translate(-163 -614)"/><path class="cls-6" d="M202.21,643.67h-.78l.83-.88A1,1,0,0,1,202.21,643.67Z" transform="translate(-163 -614)"/><path class="cls-6" d="M203.18,640.12l-.64,1.12Z" transform="translate(-163 -614)"/><path class="cls-5" d="M243.09,632.75q-1.59,5-3.17,10c-3.08,1.35-2.18,4.35-3.28,6.52-.71,1.42-1.16,3-1.82,4.64-3.14-3.57-3.14-6.89-.95-10.59,1.45-2.43,3.58-4.73,3.32-7.8l1.38-3.29,2.77-3.75C244.69,629,242.51,631.33,243.09,632.75Z" transform="translate(-163 -614)"/><path class="cls-4" d="M266,663.22l1.4,2.47-3.3,5.73c-1.1.43-2.4,1.17-1.69-1,.28-.84.5-1.7.74-2.56Z" transform="translate(-163 -614)"/><path class="cls-3" d="M222.89,645a1.82,1.82,0,0,1-.73-.41c.14-.32.28-.64.41-1C222.68,644.12,222.79,644.57,222.89,645Z" transform="translate(-163 -614)"/><path class="cls-4" d="M267.85,680.22c-.23.37-.47.74-.71,1.11C267.38,681,267.62,680.59,267.85,680.22Z" transform="translate(-163 -614)"/><path class="cls-3" d="M269.37,663.42c-.19-.58.12-.76.71-.71C269.85,663,269.61,663.18,269.37,663.42Z" transform="translate(-163 -614)"/><path class="cls-3" d="M241.34,628.49l.84-1.84c1.2-.61,2.26-4.06,3.66-.13-.92,2.08-1.84,4.15-2.75,6.23C242.51,631.33,244.69,629,241.34,628.49Z" transform="translate(-163 -614)"/><path class="cls-7" d="M217.86,686.05l1.43-.25c-.13,2.51.47,5.09-.82,8.77C217,691,217,688.53,217.86,686.05Z" transform="translate(-163 -614)"/><path class="cls-3" d="M234.14,696.46c-.74-4.12-1.48-8.25-2.37-13.25-1.7,4.9-1.8,9.15-2.49,13.3" transform="translate(-163 -614)"/><path class="cls-8" d="M222,688.94c13.9.72,27.81.31,41.71.22,9.09.48,9.08.48,9.23,8.63,0,1,.18,2,.28,3.06-.06,2.11-1.16,3.35-3.58,3.49L265,704l-87.38,0c-2.91-.7-7.57,2.18-8.2-3.23,0-2.77,0-5.54.05-8.31,0-.72,0-1.43,0-2.15,2.47-2.41,37.23-1.15,51.43-1.44l.49.2Z" transform="translate(-163 -614)"/><path class="cls-8" d="M263.52,710.27c-.91,16-9,22.29-21.8,23.33-10.84.89-30.87.1-41.8-.48-4.27-.23-22-4.75-21-22.8Z" transform="translate(-163 -614)"/><path class="cls-9" d="M178.9,710.32c-1.29-2-.68-4.22-1.26-6.29L265,704l-.66,2.17-.42,1.15-.42,2.95Z" transform="translate(-163 -614)"/><path class="cls-10" d="M194.65,723.17a4.12,4.12,0,0,1-1.68-1.68,5.11,5.11,0,0,1-.61-2.52,5,5,0,0,1,.62-2.53,4.06,4.06,0,0,1,1.65-1.66,4.84,4.84,0,0,1,2.39-.59,5.88,5.88,0,0,1,1.58.2,6.64,6.64,0,0,1,1.45.63.52.52,0,0,1,.31.51.55.55,0,0,1-.55.52.54.54,0,0,1-.24,0,5.84,5.84,0,0,0-1.17-.47,4.84,4.84,0,0,0-1.26-.15,3.69,3.69,0,0,0-1.92.46,3.12,3.12,0,0,0-1.2,1.27,3.93,3.93,0,0,0-.42,1.86,4,4,0,0,0,.41,1.85,2.92,2.92,0,0,0,1.22,1.29,3.78,3.78,0,0,0,1.91.46,4.84,4.84,0,0,0,1.26-.15,5.84,5.84,0,0,0,1.17-.47.43.43,0,0,1,.24-.06.55.55,0,0,1,.55.52.56.56,0,0,1-.31.52,6.59,6.59,0,0,1-1.45.62,5.88,5.88,0,0,1-1.58.2A4.78,4.78,0,0,1,194.65,723.17Z" transform="translate(-163 -614)"/><path class="cls-10" d="M202.57,723.51a1.9,1.9,0,0,1-.81-.7,2,2,0,0,1-.29-1.06,1.84,1.84,0,0,1,.8-1.6,3.89,3.89,0,0,1,2.27-.57h1.59v-.09a1.62,1.62,0,0,0-.42-1.24,1.94,1.94,0,0,0-1.35-.39,4.54,4.54,0,0,0-.86.07,6.29,6.29,0,0,0-.9.25l-.17,0a.51.51,0,0,1-.36-.15.49.49,0,0,1-.15-.36.52.52,0,0,1,.36-.52,5.75,5.75,0,0,1,2.3-.48,3.05,3.05,0,0,1,1.56.37,2.4,2.4,0,0,1,.92,1,2.84,2.84,0,0,1,.3,1.31v3.75a.6.6,0,0,1-.18.44.66.66,0,0,1-.44.17.61.61,0,0,1-.43-.17.6.6,0,0,1-.18-.44v-.31a3.31,3.31,0,0,1-2.48,1A2.51,2.51,0,0,1,202.57,723.51Zm2.64-1.12a3.2,3.2,0,0,0,.92-.71v-1.1H204.7c-1.33,0-2,.34-2,1s.47,1,1.4,1A2.45,2.45,0,0,0,205.21,722.39Z" transform="translate(-163 -614)"/><path class="cls-10" d="M212.83,722.69a.46.46,0,0,1,.15.34.52.52,0,0,1-.32.48,2.59,2.59,0,0,1-1.1.24c-1.3,0-1.95-.59-1.95-1.76v-4h-.67a.53.53,0,1,1,0-1.06h.67V716a.62.62,0,0,1,.16-.47.67.67,0,0,1,.46-.16.6.6,0,0,1,.45.17.61.61,0,0,1,.16.46v.94h1.49a.54.54,0,0,1,.38.15.52.52,0,0,1,.15.38.51.51,0,0,1-.15.37.51.51,0,0,1-.38.16h-1.49v3.93a.73.73,0,0,0,.21.62,1,1,0,0,0,.64.16,1.55,1.55,0,0,0,.53-.08h0l.23,0A.46.46,0,0,1,212.83,722.69Z" transform="translate(-163 -614)"/><path class="cls-10" d="M220.18,723.14a4.26,4.26,0,0,1-1.65-1.69,5.43,5.43,0,0,1,0-5,4.38,4.38,0,0,1,1.67-1.69,4.73,4.73,0,0,1,2.35-.61,6,6,0,0,1,1.76.24,6.54,6.54,0,0,1,1.55.72.52.52,0,0,1,.2.19.64.64,0,0,1,.08.3.57.57,0,0,1-.16.39.55.55,0,0,1-.41.17.64.64,0,0,1-.28-.07,6.25,6.25,0,0,0-1.26-.56,4.87,4.87,0,0,0-1.34-.18,4,4,0,0,0-1.82.42,3.14,3.14,0,0,0-1.27,1.26,3.94,3.94,0,0,0-.44,1.92,3.87,3.87,0,0,0,.43,1.84,3.13,3.13,0,0,0,1.26,1.29,3.82,3.82,0,0,0,1.9.46,4.77,4.77,0,0,0,2.31-.58v-2.22a.14.14,0,0,0-.16-.16h-2a.55.55,0,0,1-.4-.16.53.53,0,0,1-.16-.39.55.55,0,0,1,.56-.56h2.61a.65.65,0,0,1,.65.65v3a.93.93,0,0,1-.13.5.87.87,0,0,1-.39.34,6.91,6.91,0,0,1-3,.74A4.72,4.72,0,0,1,220.18,723.14Z" transform="translate(-163 -614)"/><path class="cls-10" d="M228.49,723.51a.6.6,0,0,1-.18-.44v-5.69a.62.62,0,0,1,.18-.44.58.58,0,0,1,.43-.18.61.61,0,0,1,.62.62v.53a2.6,2.6,0,0,1,2.07-1.22h.07a.54.54,0,0,1,.42.18.58.58,0,0,1,.18.43.54.54,0,0,1-.18.42.64.64,0,0,1-.45.16h-.06a2.27,2.27,0,0,0-1.15.3,2.72,2.72,0,0,0-.9.86v4a.6.6,0,0,1-.18.44.66.66,0,0,1-.44.17A.61.61,0,0,1,228.49,723.51Z" transform="translate(-163 -614)"/><path class="cls-10" d="M234.06,723.51a1.79,1.79,0,0,1-.81-.7,1.93,1.93,0,0,1-.3-1.06,1.83,1.83,0,0,1,.81-1.6,3.85,3.85,0,0,1,2.26-.57h1.59v-.09a1.62,1.62,0,0,0-.42-1.24,1.9,1.9,0,0,0-1.34-.39,4.65,4.65,0,0,0-.87.07,7.1,7.1,0,0,0-.9.25l-.17,0a.49.49,0,0,1-.35-.15.5.5,0,0,1-.16-.36.52.52,0,0,1,.36-.52,5.78,5.78,0,0,1,2.3-.48,3.12,3.12,0,0,1,1.57.37,2.37,2.37,0,0,1,.91,1,2.84,2.84,0,0,1,.31,1.31v3.75a.61.61,0,0,1-.19.44.64.64,0,0,1-.44.17.61.61,0,0,1-.43-.17.6.6,0,0,1-.18-.44v-.31a3.28,3.28,0,0,1-2.48,1A2.43,2.43,0,0,1,234.06,723.51Zm2.63-1.12a3,3,0,0,0,.92-.71v-1.1h-1.43c-1.33,0-2,.34-2,1s.46,1,1.39,1A2.45,2.45,0,0,0,236.69,722.39Z" transform="translate(-163 -614)"/><path class="cls-10" d="M240.63,723.15a.49.49,0,0,1-.23-.45.55.55,0,0,1,.15-.38.49.49,0,0,1,.38-.16.6.6,0,0,1,.24.05,5.39,5.39,0,0,0,.88.3,3.82,3.82,0,0,0,.92.1c1,0,1.46-.31,1.46-.93a.49.49,0,0,0-.31-.45,6.42,6.42,0,0,0-1.12-.36,8.11,8.11,0,0,1-1.29-.38,2.18,2.18,0,0,1-.91-.64,1.6,1.6,0,0,1-.35-1.05,1.91,1.91,0,0,1,.69-1.53,2.87,2.87,0,0,1,1.91-.58A5.39,5.39,0,0,1,245,717a.55.55,0,0,1,.29.2.54.54,0,0,1,.11.32.57.57,0,0,1-.16.38.53.53,0,0,1-.39.16l-.17,0a5.26,5.26,0,0,0-1.51-.24,2.06,2.06,0,0,0-1.1.25.76.76,0,0,0-.42.66.6.6,0,0,0,.36.57,6.25,6.25,0,0,0,1.16.36c.47.13.9.25,1.27.39a2,2,0,0,1,.88.64,1.85,1.85,0,0,1-.36,2.5,2.88,2.88,0,0,1-1.89.56A5,5,0,0,1,240.63,723.15Z" transform="translate(-163 -614)"/><path class="cls-10" d="M247,723.15a.51.51,0,0,1-.23-.45.55.55,0,0,1,.15-.38.49.49,0,0,1,.38-.16.6.6,0,0,1,.24.05,5.39,5.39,0,0,0,.88.3,3.84,3.84,0,0,0,.93.1c1,0,1.46-.31,1.46-.93a.51.51,0,0,0-.32-.45,6.14,6.14,0,0,0-1.12-.36,8.11,8.11,0,0,1-1.29-.38,2.18,2.18,0,0,1-.91-.64,1.6,1.6,0,0,1-.35-1.05,1.91,1.91,0,0,1,.69-1.53,2.88,2.88,0,0,1,1.92-.58,5.37,5.37,0,0,1,1.92.33.55.55,0,0,1,.29.2.54.54,0,0,1,.11.32.57.57,0,0,1-.16.38.53.53,0,0,1-.39.16l-.17,0a5.21,5.21,0,0,0-1.51-.24,2.06,2.06,0,0,0-1.1.25.76.76,0,0,0-.42.66.6.6,0,0,0,.36.57,6.25,6.25,0,0,0,1.16.36c.48.13.9.25,1.27.39a2,2,0,0,1,.88.64,1.85,1.85,0,0,1-.36,2.5,2.87,2.87,0,0,1-1.88.56A5,5,0,0,1,247,723.15Z" transform="translate(-163 -614)"/></svg>