<svg id="圖層_1" data-name="圖層 1" xmlns="http://www.w3.org/2000/svg" viewBox="0 0 120.97 119.91"><defs><style>.cls-1{fill:#bababa;stroke:#bababa;stroke-miterlimit:10;}.cls-2{fill:#939393;}</style></defs><path class="cls-1" d="M107.9,119A12.4,12.4,0,0,0,120,106.3V3.3a3.1,3.1,0,0,0-5.6-1.9L99.2,22.8a4.88,4.88,0,0,1-4,2.1H63.7a5.78,5.78,0,0,1-4.1-2L44.3,1.4a3,3,0,0,0-5.5,1.9L36,105.5c-23.4.8-15.4-30.7-15.4-30.7,4.3-23.8-4.1-30.9-4.1-30.9C4.6,31.1.9,37.5.9,37.5c-2.6,4,1.2,8.3,4.2,10.8a18,18,0,0,1,6.3,13.3,37.34,37.34,0,0,1-1.4,11,20.63,20.63,0,0,1-1.2,3.5C6.3,81.7,6.7,89,6.7,89c3.7,31.3,31.4,30,31.4,30ZM62.4,51.9a6,6,0,1,1,5.8-6A5.91,5.91,0,0,1,62.4,51.9Zm36.6,0a6,6,0,1,1,5.8-6A5.91,5.91,0,0,1,99,51.9Z" transform="translate(0.47 0.4)"/><ellipse cx="62.87" cy="46.3" rx="5.8" ry="6"/><ellipse cx="99.47" cy="46.3" rx="5.8" ry="6"/><path d="M68.6,63.5a9.88,9.88,0,0,0,2.1,3.2,5.32,5.32,0,0,0,3.1,1.7,6.72,6.72,0,0,0,3.4-.7c.5-.3,1.1-.6,1.6-.9l1.5-1.1h0a.91.91,0,0,1,1,0,10.14,10.14,0,0,0,3.2,1.8,8.42,8.42,0,0,0,3.5.7,5.22,5.22,0,0,0,3.2-1.4,8.64,8.64,0,0,0,1.3-1.4c.4-.5.7-1.1,1.1-1.7a14.58,14.58,0,0,1-.7,1.9l-.5.9a5.55,5.55,0,0,1-.6.8c-.2.3-.5.5-.7.8l-.9.6c-.3.2-.7.3-1,.5s-.7.2-1.1.3a9.43,9.43,0,0,1-4.1-.4,16.49,16.49,0,0,1-3.7-2h1.1l-1.7,1.2c-.6.3-1.2.7-1.8,1a7,7,0,0,1-4.3.5,5.75,5.75,0,0,1-3.5-2.4A10.48,10.48,0,0,1,68.6,63.5Z" transform="translate(0.47 0.4)"/><path class="cls-2" d="M69.63,34l.94-9H63.85a5.81,5.81,0,0,1-.71-.11l2.8,9.71C66.57,36.69,69.39,36.25,69.63,34Z" transform="translate(0.47 0.4)"/><path class="cls-2" d="M78.59,33.61c.63,2.17,3.45,1.73,3.69-.57l.85-8.12h-7Z" transform="translate(0.47 0.4)"/><path class="cls-2" d="M89.3,24.92l2.32,8c.62,2.17,3.44,1.73,3.68-.57l.79-7.53a4.52,4.52,0,0,1-.74.06Z" transform="translate(0.47 0.4)"/><path class="cls-2" d="M45.92,71.94l-9-1.17s-.2,7.2-.2,7.47l9.65-2.6C48.58,75.06,48.22,72.23,45.92,71.94Z" transform="translate(0.47 0.4)"/><path class="cls-2" d="M45.86,63c2.18-.57,1.81-3.41-.48-3.7l-8.1-1-.16,7Z" transform="translate(0.47 0.4)"/><path class="cls-2" d="M37.46,52.09,45.66,50c2.18-.58,1.81-3.41-.48-3.7l-7.52-1C37.66,45.56,37.46,52.09,37.46,52.09Z" transform="translate(0.47 0.4)"/></svg>