<svg id="圖層_1" data-name="圖層 1" xmlns="http://www.w3.org/2000/svg" viewBox="0 0 134.37 116.14"><defs><style>.cls-1{fill:#ff1a1a;}</style></defs><path class="cls-1" d="M680.49,349.25c4-3.71,7.25-6.83,10.64-9.72,14.28-12.14,34.07-10.95,47.18,2.78,13.31,13.92,13.64,33.91.37,47.6C724,405.09,708.92,420,694,435c-4.1,4.11-8.32,8.1-12.68,12.34-.91-.83-2-1.78-3.08-2.82Q651.6,417.75,625,391c-10.63-10.66-13.74-23.39-8.15-37.09,5.72-14,16.83-22.22,32.37-22.68a31.15,31.15,0,0,1,23.86,9.64C675.61,343.48,677.91,346.32,680.49,349.25Z" transform="translate(-614.09 -331.16)"/></svg>