<svg id="圖層_1" data-name="圖層 1" xmlns="http://www.w3.org/2000/svg" viewBox="0 0 120 119"><defs><style>.cls-1{fill:#fc9f42;}</style></defs><path class="cls-1" d="M1004.69,473.85h31.53a5,5,0,0,0,4-2.11l15.18-21.37a3.07,3.07,0,0,1,5.57,1.92v103A12.43,12.43,0,0,1,1048.84,568H979.07s-27.7,1.33-31.4-30c0,0-.37-7.35,2.06-12.87a25.5,25.5,0,0,0,1.22-3.54,39.79,39.79,0,0,0,1.44-11,18,18,0,0,0-6.33-13.28c-3-2.5-6.85-6.82-4.15-10.77,0,0,3.71-6.44,15.64,6.43,0,0,8.43,7.08,4.11,30.9,0,0-8,31.53,15.42,30.68l2.68-102.29a3.07,3.07,0,0,1,5.56-1.93l15.35,21.45A5,5,0,0,0,1004.69,473.85Z" transform="translate(-941 -449)"/><ellipse cx="62.41" cy="45.87" rx="5.76" ry="6.01"/><ellipse cx="99.02" cy="45.87" rx="5.76" ry="6.01"/><path d="M1009.58,512.47a11.54,11.54,0,0,0,2.12,3.22,5.09,5.09,0,0,0,3.07,1.67,6.7,6.7,0,0,0,3.39-.71c.54-.3,1.08-.59,1.61-.92l1.51-1.13h0a.84.84,0,0,1,1,0,13.3,13.3,0,0,0,3.19,1.85,7.74,7.74,0,0,0,3.51.67,5.13,5.13,0,0,0,3.24-1.41,8.68,8.68,0,0,0,1.31-1.39c.37-.52.7-1.09,1.08-1.65-.21.62-.41,1.28-.68,1.89l-.51.89a3.83,3.83,0,0,1-.61.84,5.93,5.93,0,0,1-.73.77l-.88.64c-.31.17-.66.3-1,.45a6.47,6.47,0,0,1-1.07.28A8.57,8.57,0,0,1,1025,518a14,14,0,0,1-3.69-2.05h1.07l-1.68,1.2c-.6.35-1.21.69-1.85,1a7.48,7.48,0,0,1-4.27.54,5.73,5.73,0,0,1-3.48-2.43A9.27,9.27,0,0,1,1009.58,512.47Z" transform="translate(-941 -449)"/></svg>