<?xml version="1.0" encoding="utf-8"?>
<!-- Generator: Adobe Illustrator 24.3.0, SVG Export Plug-In . SVG Version: 6.00 Build 0)  -->
<svg version="1.1" id="圖層_1" xmlns="http://www.w3.org/2000/svg" xmlns:xlink="http://www.w3.org/1999/xlink" x="0px" y="0px"
	 viewBox="0 0 120 119" style="enable-background:new 0 0 120 119;" xml:space="preserve">
<style type="text/css">
	.st0{fill:#FFFFFF;}
	.st1{fill:none;stroke:#606060;stroke-miterlimit:10;}
	.st2{fill:#606060;}
	.st3{fill:#FC9F42;}
</style>
<path class="st0" d="M107.9,119c6.8-0.2,12.3-5.8,12.1-12.7V3.3c0-1-0.4-2-1.3-2.6c-1.4-1-3.3-0.7-4.3,0.7L99.2,22.8
	c-0.9,1.3-2.4,2.1-4,2.1H63.7c-1.6-0.1-3.1-0.8-4.1-2L44.3,1.4c-0.6-0.9-1.6-1.3-2.6-1.3c-1.7,0.1-3,1.5-2.9,3.2L36,105.5
	c-23.4,0.8-15.4-30.7-15.4-30.7c4.3-23.8-4.1-30.9-4.1-30.9C4.6,31.1,0.9,37.5,0.9,37.5c-2.6,4,1.2,8.3,4.2,10.8
	c3.9,3.3,6.2,8.2,6.3,13.3c0.1,3.7-0.4,7.4-1.4,11c-0.3,1.2-0.7,2.4-1.2,3.5C6.3,81.7,6.7,89,6.7,89c3.7,31.3,31.4,30,31.4,30H107.9
	z M62.4,51.9c-3.2,0-5.8-2.7-5.8-6s2.6-6,5.8-6c3.2,0,5.8,2.7,5.8,6S65.6,51.9,62.4,51.9z M99,51.9c-3.2,0-5.8-2.7-5.8-6
	s2.6-6,5.8-6s5.8,2.7,5.8,6S102.2,51.9,99,51.9z"/>
<path class="st1" d="M99,51.9c-3.2,0-5.8-2.7-5.8-6s2.6-6,5.8-6s5.8,2.7,5.8,6S102.2,51.9,99,51.9z"/>
<path class="st2" d="M120,3.3v37.9c-14.8-1.5-22.7-10.5-26.3-16.3h1.5c1.6,0,3.1-0.8,4-2.1l15.2-21.4c1-1.4,2.9-1.7,4.3-0.7
	C119.6,1.3,120,2.3,120,3.3z"/>
<path class="st3" d="M82,24.9C80.7,28,77,35.4,66.4,41.3c-0.3,0-3.7-1.4-4-1.4c-3,0-5.2,2.9-5.4,6c-5,3.3-11.7,5.3-19.5,5.9
	l1.3-48.5c-0.1-1.7,1.2-3.1,2.9-3.2c1,0,2,0.4,2.6,1.3l15.3,21.5c1,1.2,2.5,1.9,4.1,2H82z"/>
<path d="M68.2,45.9c0,3.3-2.6,6-5.8,6c-3.2,0-5.8-2.7-5.8-6c0-0.2,0-0.3,0-0.5c0.2-3.1,2.7-5.5,5.8-5.5c0.3,0,0.5,0,0.8,0.1
	C66,40.4,68.2,42.9,68.2,45.9z"/>
<ellipse cx="99" cy="45.9" rx="5.8" ry="6"/>
<path d="M68.6,63.5c0.5,1.2,1.2,2.3,2.1,3.2c0.8,0.9,1.9,1.5,3.1,1.7c1.2,0.1,2.3-0.2,3.4-0.7c0.5-0.3,1.1-0.6,1.6-0.9l1.5-1.1l0,0
	c0.3-0.2,0.7-0.2,1,0c1,0.8,2,1.4,3.2,1.8c1.1,0.5,2.3,0.7,3.5,0.7c1.2-0.1,2.4-0.6,3.2-1.4c0.5-0.4,0.9-0.9,1.3-1.4
	s0.7-1.1,1.1-1.7c-0.2,0.6-0.4,1.3-0.7,1.9l-0.5,0.9c-0.2,0.3-0.4,0.6-0.6,0.8c-0.2,0.3-0.5,0.5-0.7,0.8l-0.9,0.6
	c-0.3,0.2-0.7,0.3-1,0.5c-0.3,0.1-0.7,0.2-1.1,0.3c-1.4,0.2-2.8,0-4.1-0.4c-1.3-0.5-2.6-1.2-3.7-2h1.1l-1.7,1.2
	c-0.6,0.3-1.2,0.7-1.8,1c-1.3,0.6-2.8,0.8-4.3,0.5c-1.4-0.3-2.7-1.2-3.5-2.4C69.3,66.1,68.8,64.8,68.6,63.5z"/>
</svg>
